# xmcd
#
# Track frame offsets:
#	150
#	13607
#	32568
#	48402
#	59547
#	74468
#	89888
#	109928
#	121791
#	138454
#	152409
#
# Disc length: 2249 seconds
#
# Revision: 0
# Processed by: cddbd v1.5PL3 Copyright (c) Steve Scherf et al.
# Submitted via: dBpowerAMP V4.0
#
DISCID=9608c70b
DTITLE=Jeff Bates - Rainbow Man
DYEAR=1900
DGENRE=
TTITLE0=Country Enough
TTITLE1=The Love Song
TTITLE2=Long Slow Kisses
TTITLE3=Lovin Like That
TTITLE4=I Wanna Make You Cry
TTITLE5=Your Lovin Talks To Me
TTITLE6=My Mississippi
TTITLE7=Already Spent
TTITLE8=Rainbow Man
TTITLE9=My Inlaws Are Outlaws
TTITLE10=The Wings Of Mamas Prayers
EXTD=
EXTT0=
EXTT1=
EXTT2=
EXTT3=
EXTT4=
EXTT5=
EXTT6=
EXTT7=
EXTT8=
EXTT9=
EXTT10=
PLAYORDER=
